<?xml version="1.0" encoding="utf-8"?>
<svg height="800px" width="800px" version="1.1" id="_x36_" viewBox="-92.16 -92.16 696.32 696.32" fill="#000000" transform="rotate(0)matrix(1, 0, 0, 1, 0, 0)" xmlns="http://www.w3.org/2000/svg" xmlns:bx="https://boxy-svg.com"><defs><bx:export><bx:file format="svg" path="camping.svg"/></bx:export></defs><g id="SVGRepo_bgCarrier" stroke-width="0" transform="translate(0,0), scale(1)"><path transform="translate(-92.16, -92.16), scale(43.52)" fill="#283B69" d="M9.166.33a2.25 2.25 0 00-2.332 0l-5.25 3.182A2.25 2.25 0 00.5 5.436v5.128a2.25 2.25 0 001.084 1.924l5.25 3.182a2.25 2.25 0 002.332 0l5.25-3.182a2.25 2.25 0 001.084-1.924V5.436a2.25 2.25 0 00-1.084-1.924L9.166.33z" strokewidth="0"/></g><g id="SVGRepo_tracerCarrier" stroke-linecap="round" stroke-linejoin="round" stroke="#CCCCCC" stroke-width="3.072"/><g id="SVGRepo_iconCarrier" transform="matrix(1, 0, 0, 1, 0, 65.726587)"><g><polygon style="fill:#65829A;" points="214.855,301.532 83.164,301.532 157.816,149.057 249.649,149.057 "/><polygon style="fill:#55768D;" points="305.834,301.532 174.143,301.532 208.937,149.057 340.628,149.057 "/><polygon style="fill:#5B96B5;" points="512,301.552 325.734,301.552 311.526,276.674 256.435,180.235 248.896,152.226 248.084,149.036 208.071,0 256.725,12.41 263.452,14.15 295.347,51.032 "/><polygon style="fill:#CAEAFB;" points="208.071,0 208.071,149.036 131.697,301.552 0,301.552 4.233,295.405 "/><polygon style="fill:#8DC8E7;" points="208.059,0.014 388.142,301.532 214.855,301.532 208.059,149.043 "/><polygon style="fill:#FFFFFF;" points="131.675,301.532 98.76,301.532 208.059,149.043 "/><polygon style="fill:#FFFFFF;" points="214.855,301.532 247.775,301.532 208.059,149.043 "/></g></g></svg>