<?xml version="1.0" encoding="utf-8"?>
<svg height="800px" width="800px" version="1.1" id="Layer_1" viewBox="-199.68 -199.68 911.36 911.36" fill="#000000" xmlns="http://www.w3.org/2000/svg" xmlns:xlink="http://www.w3.org/1999/xlink" xmlns:bx="https://boxy-svg.com"><defs><bx:export><bx:file format="svg" xlink:href="#object-0"/><bx:file format="svg" path="cooking.svg"/></bx:export></defs><g id="SVGRepo_bgCarrier" stroke-width="0"><path transform="translate(-199.68, -199.68), scale(56.96)" fill="#283B69" d="M9.166.33a2.25 2.25 0 00-2.332 0l-5.25 3.182A2.25 2.25 0 00.5 5.436v5.128a2.25 2.25 0 001.084 1.924l5.25 3.182a2.25 2.25 0 002.332 0l5.25-3.182a2.25 2.25 0 001.084-1.924V5.436a2.25 2.25 0 00-1.084-1.924L9.166.33z" strokewidth="0"/></g><g id="SVGRepo_tracerCarrier" stroke-linecap="round" stroke-linejoin="round"/><g id="SVGRepo_iconCarrier"><path style="fill:#FF968F;" d="M259.471,252.521c-6.631-6.631-17.385-6.632-24.015,0l-44.829,44.829 c-6.632,6.632-6.441,17.576,0.192,24.208c3.316,3.316,7.566,4.878,11.912,4.878c4.346,0,8.596-1.755,11.912-5.07l44.829-44.829 C266.103,269.904,266.104,259.151,259.471,252.521z"/><path style="fill:#FFBDB9;" d="M259.471,252.521c-6.631-6.631-17.385-6.632-24.015,0l-44.829,44.829 c-6.632,6.632-6.441,17.576,0.192,24.208L259.471,252.521z"/><path style="fill: rgb(141, 200, 231);" d="M232.911,317.521l-38.425-38.425c-6.631-6.631-17.329-6.701-23.96-0.07l-157.47,157.47 c-17.214,17.214-17.504,45.529-0.289,62.744c0,0,0,0,0.001,0.001c8.607,8.607,20.059,12.759,31.364,12.759 c11.306,0,22.758-4.455,31.364-13.062l157.47-157.47C239.598,334.835,239.542,324.153,232.911,317.521z"/><path style="fill: rgb(202, 234, 251);" d="M213.691,298.301l-19.205-19.205c-6.631-6.631-17.329-6.701-23.96-0.07l-157.47,157.47 c-17.214,17.214-17.504,45.529-0.289,62.744c0,0,0,0,0.001,0.001C12.766,499.239,213.691,298.301,213.691,298.301z"/><path style="fill:#ABA8AB;" d="M500.455,115.96L396.046,11.551C388.563,4.068,378.721,0,368.135,0s-20.427,4.179-27.91,11.661 L213.574,138.314c-10.28,10.28-14.184,25.244-10.058,39.186l23.812,80.515c3.824,12.922,13.764,22.939,26.685,26.763l80.508,23.882 l-0.005-0.005c4.007,0.804,7.448,1.503,11.206,1.503c10.355,0,20.413-4.197,27.956-11.74L500.33,171.766 c7.484-7.484,11.67-17.319,11.67-27.903S507.94,123.443,500.455,115.96z"/><path style="fill:#CCCCCC;" d="M448.243,63.748l-52.197-52.197C388.563,4.068,378.721,0,368.135,0s-20.427,4.179-27.91,11.661 L213.574,138.314c-10.28,10.28-14.184,25.244-10.058,39.186l23.812,80.515c1.908,6.444,5.336,12.167,9.896,16.759L448.243,63.748z" id="object-0"/><path style="fill:#E1E1E1;" d="M374.746,71.603c-6.631-6.631-17.385-6.632-24.015,0l-84.855,84.855 c-6.632,6.632-6.441,17.576,0.192,24.208c3.316,3.316,7.566,4.878,11.912,4.878c4.346,0,8.596-1.755,11.912-5.07l84.855-84.855 C381.378,88.986,381.379,78.234,374.746,71.603z"/><path style="fill:#283B69;" d="M374.746,71.603c-6.631-6.631-17.385-6.632-24.015,0l-84.855,84.855 c-6.632,6.632-6.441,17.576,0.192,24.208L374.746,71.603z"/><path style="fill:#E1E1E1;" d="M407.568,104.424c-6.631-6.631-17.385-6.632-24.015,0l-84.855,84.855 c-6.632,6.632-6.441,17.576,0.192,24.208c3.316,3.316,7.566,4.878,11.912,4.878s8.596-1.755,11.912-5.07l84.855-84.855 C414.2,121.807,414.2,111.056,407.568,104.424z"/><path style="fill:#283B69;" d="M407.568,104.424c-6.631-6.631-17.385-6.632-24.015,0l-84.855,84.855 c-6.632,6.632-6.441,17.576,0.192,24.208L407.568,104.424z"/><path style="fill:#E1E1E1;" d="M440.389,137.246c-6.631-6.631-17.385-6.632-24.015,0l-84.855,84.855 c-6.632,6.632-6.441,17.576,0.192,24.208c3.316,3.316,7.566,4.878,11.912,4.878s8.596-1.755,11.912-5.07l84.855-84.855 C447.021,154.629,447.022,143.877,440.389,137.246z"/><path style="fill:#283B69;" d="M440.389,137.246c-6.631-6.631-17.385-6.632-24.015,0l-84.855,84.855 c-6.632,6.632-6.441,17.576,0.192,24.208L440.389,137.246z"/></g></svg>