<?xml version="1.0" encoding="utf-8"?>
<svg version="1.1" id="Layer_1" viewBox="-215.04 -215.04 942.08 942.08" width="800px" height="800px" fill="#000000" xmlns="http://www.w3.org/2000/svg" xmlns:bx="https://boxy-svg.com"><defs><bx:export><bx:file format="svg" path="sewing.svg"/></bx:export></defs><g id="SVGRepo_bgCarrier" stroke-width="0"><path transform="translate(-215.04, -215.04), scale(58.88)" fill="#283B69" d="M9.166.33a2.25 2.25 0 00-2.332 0l-5.25 3.182A2.25 2.25 0 00.5 5.436v5.128a2.25 2.25 0 001.084 1.924l5.25 3.182a2.25 2.25 0 002.332 0l5.25-3.182a2.25 2.25 0 001.084-1.924V5.436a2.25 2.25 0 00-1.084-1.924L9.166.33z" strokewidth="0"/></g><g id="SVGRepo_tracerCarrier" stroke-linecap="round" stroke-linejoin="round"/><g id="SVGRepo_iconCarrier" transform="matrix(1, 0, 0, 1, 49.568021, 1.982779)"><path style="fill:#FFBDB9;" d="M317.217,72.348H83.478c-9.239,0-16.696,7.457-16.696,16.696v333.913 c0,9.238,7.456,16.696,16.696,16.696h233.739c9.239,0,16.696-7.457,16.696-16.696V89.043 C333.913,79.805,326.457,72.348,317.217,72.348z"/><path style="fill:#FF968F;" d="M200.348,439.652h116.87c9.239,0,16.696-7.457,16.696-16.696V89.043 c0-9.238-7.456-16.696-16.696-16.696h-116.87V439.652z"/><g><path style="fill: rgb(244, 249, 251);" d="M350.609,105.739H50.087C22.468,105.739,0,83.271,0,55.652V16.696C0,7.473,7.479,0,16.696,0H384 c9.217,0,16.696,7.473,16.696,16.696v38.957C400.696,83.271,378.228,105.739,350.609,105.739z"/><path style="fill: rgb(244, 249, 251);" d="M384,512H16.696C7.479,512,0,504.527,0,495.304v-38.957c0-27.619,22.468-50.087,50.087-50.087 h300.522c27.619,0,50.087,22.468,50.087,50.087v38.957C400.696,504.527,393.217,512,384,512z"/></g><g><path style="fill: rgb(233, 239, 243);" d="M350.609,406.261H200.348V512H384c9.217,0,16.696-7.473,16.696-16.696v-38.957 C400.696,428.729,378.228,406.261,350.609,406.261z"/><path style="fill: rgb(233, 239, 243);" d="M350.609,105.739c27.619,0,50.087-22.468,50.087-50.087V16.696C400.696,7.473,393.217,0,384,0 H200.348v105.739H350.609z"/></g><path style="fill:#FFE3E1;" d="M512,189.217c0,9.238-7.456,16.696-16.696,16.696h-27.826c-18.365,0-33.391,15.026-33.391,33.391 v66.783c0,36.842-29.94,66.783-66.783,66.783H66.783v-33.391h300.522c18.365,0,33.391-15.026,33.391-33.391v-66.783 c0-36.842,29.94-66.783,66.783-66.783h27.826C504.544,172.522,512,179.979,512,189.217z"/><path style="fill:#FFBDB9;" d="M495.304,172.522h-27.826c-36.843,0-66.783,29.941-66.783,66.783v66.783 c0,18.365-15.026,33.391-33.391,33.391H200.348v33.391h166.956c36.843,0,66.783-29.941,66.783-66.783v-66.783 c0-18.365,15.026-33.391,33.391-33.391h27.826c9.239,0,16.696-7.457,16.696-16.696C512,179.979,504.544,172.522,495.304,172.522z"/><rect x="66.783" y="272.696" style="fill:#FFE3E1;" width="267.13" height="33.391"/><rect x="200.348" y="272.696" style="fill:#FFBDB9;" width="133.565" height="33.391"/><rect x="66.783" y="205.913" style="fill:#FFE3E1;" width="267.13" height="33.391"/><rect x="200.348" y="205.913" style="fill:#FFBDB9;" width="133.565" height="33.391"/><rect x="66.783" y="139.13" style="fill:#FFE3E1;" width="267.13" height="33.391"/><rect x="200.348" y="139.13" style="fill:#FFBDB9;" width="133.565" height="33.391"/></g></svg>